<svg id="OBJECTS" xmlns="http://www.w3.org/2000/svg" viewBox="0 0 750 508.95"><defs><style>.cls-1{fill:#e6e8ff;}.cls-2{fill:#cad3ff;}.cls-3{fill:#d4d9fc;}.cls-4{fill:#c1c9f7;}.cls-5{fill:#b4baed;}.cls-6{fill:none;stroke:#fff;stroke-miterlimit:10;stroke-dasharray:4;}</style></defs><title>bg</title><rect class="cls-1" width="750" height="508.95"/><path class="cls-2" d="M678,453.13c3.08-3.2-7.52-6.46-9-7-5.61-2.08-12.57-2.73-17.16-7.14-3-2.9-3-6.89-1.5-10.61,1.63-3.9-1.52-8.39-5.21-10.09s-7.89-1.69-11.73-3c-6.64-2.24-11.61-8.17-15.22-14.49s-6.24-13.25-10.17-19.35c-7.81-12.13-20.46-20.19-33.88-23.84s-27.59-3.17-41.26-.73L217.07,385.63c-4.35-5-11.27-6.67-17.64-6s-12.38,3.37-18.26,6c-12.88,5.85-26.89,12.85-32.48,26.46-2.5,6.08-3.8,13.78-9.52,16.47-8.29,3.9-8.76-.26-13.14.54-6.68,1.22-9,6.52-10.88,11.56-3.05,8.2-26.41,12.44-14.08,12.44Z" transform="translate(0 9.37)"/><path class="cls-3" d="M581.16,440.71c-2.23-27.26-2.91-55.27,4.71-81.41s24.82-50.42,49.14-59.6c10.8-4.08,22.48-5.06,33.22-9.31-16.92,9.58-23,31.79-40.22,49.83-11.58,12.15-21,19.73-31,33.57-14.43,20.08-15.83,43-15.87,66.92" transform="translate(0 9.37)"/><path class="cls-4" d="M668.23,290.39a105.41,105.41,0,0,0-10.48,5.22c-3.39,1.92-6.72,4-9.93,6.17a150.91,150.91,0,0,0-57,72.25,151,151,0,0,0-6.4,22.46c-.36,1.92-.81,3.82-1.1,5.75l-.87,5.78c-.3,1.93-.43,3.87-.65,5.81l-.3,2.91c-.09,1-.12,1.95-.18,2.92L581,425.5l-.09,5.85,0,2.93.09,2.93.17,5.85-.26-5.85-.13-2.93v-8.79l.26-5.85a162.47,162.47,0,0,1,3-23.25,152.8,152.8,0,0,1,6.3-22.58A150.93,150.93,0,0,1,600,352.49a148.69,148.69,0,0,1,29.15-36.55A136.6,136.6,0,0,1,668.23,290.39Z" transform="translate(0 9.37)"/><path class="cls-4" d="M650,300.1a8.86,8.86,0,0,1,3.85-1.7,9.35,9.35,0,0,1,4.21,0A63,63,0,0,0,650,300.1Z" transform="translate(0 9.37)"/><path class="cls-4" d="M649.15,295.62a42.43,42.43,0,0,0-2.92,4.44,47.6,47.6,0,0,1-2.86,4.53,26.2,26.2,0,0,1,2.22-4.92A12.36,12.36,0,0,1,649.15,295.62Z" transform="translate(0 9.37)"/><path class="cls-4" d="M635.72,310.54a20,20,0,0,1,14.37-1.3,60.4,60.4,0,0,0-7.25.05A46.4,46.4,0,0,0,635.72,310.54Z" transform="translate(0 9.37)"/><path class="cls-4" d="M631.79,301.08a29.25,29.25,0,0,0-1.9,4.39q-.75,2.26-1.44,4.58l-1.36,4.6-1.33,4.64a45.3,45.3,0,0,1,.77-4.78c.33-1.58.75-3.13,1.21-4.68a44.15,44.15,0,0,1,1.62-4.56A16.85,16.85,0,0,1,631.79,301.08Z" transform="translate(0 9.37)"/><path class="cls-4" d="M619.56,326a28.42,28.42,0,0,1,5.05-2.13,28.72,28.72,0,0,1,5.37-1.17,26.71,26.71,0,0,1,5.51-.06,16.43,16.43,0,0,1,5.32,1.27,23.73,23.73,0,0,0-5.36-.7,40.21,40.21,0,0,0-5.38.23,42,42,0,0,0-5.31,1C623,324.82,621.28,325.37,619.56,326Z" transform="translate(0 9.37)"/><path class="cls-4" d="M614.33,312.36c-.55,2-1.1,4-1.56,6.05s-.88,4.06-1.16,6.12a61.15,61.15,0,0,0-.69,6.18c-.15,2.07-.19,4.16-.2,6.25a39.77,39.77,0,0,1-.38-6.27,52.66,52.66,0,0,1,.52-6.27,54,54,0,0,1,1.36-6.15A47.76,47.76,0,0,1,614.33,312.36Z" transform="translate(0 9.37)"/><path class="cls-4" d="M607.79,340.66a18.63,18.63,0,0,1,5.19-1.87,34.94,34.94,0,0,1,5.48-.69c1.84-.08,3.67-.14,5.51-.07a22.86,22.86,0,0,1,5.46.79,38.41,38.41,0,0,0-5.46-.21c-1.82.06-3.65.14-5.47.24a54.31,54.31,0,0,0-5.42.51A28,28,0,0,0,607.79,340.66Z" transform="translate(0 9.37)"/><path class="cls-4" d="M598.43,331.26l-.2,5.87c-.05,1.95-.1,3.9-.09,5.85s.07,3.88.22,5.82c.08,1,.19,1.94.33,2.9a23.53,23.53,0,0,0,.58,2.87,21.57,21.57,0,0,1-1.48-5.7,43.07,43.07,0,0,1-.4-5.89c0-2,.08-3.93.26-5.89S598.06,333.19,598.43,331.26Z" transform="translate(0 9.37)"/><path class="cls-4" d="M597.7,357.55a34.78,34.78,0,0,1,3.8-1.55,33.8,33.8,0,0,1,4-1.1,24.47,24.47,0,0,1,4.09-.52,16.64,16.64,0,0,1,4.11.28,39,39,0,0,0-4.06.29c-1.34.18-2.67.4-4,.68s-2.63.6-4,.92S599,357.24,597.7,357.55Z" transform="translate(0 9.37)"/><path class="cls-5" d="M574.49,444.5c6.49-16.58,15.57-29.05,22.06-45.63A180.56,180.56,0,0,1,604,381.56c12.18-23.61,35.74-41,61.11-42,14.54-.59,29.94,6.44,43.53.8C705,356.09,659.51,356.17,608,403.54c-4.23,3.88-8.71,7.51-12.22,12.13a93.71,93.71,0,0,0-7.68,12.71c-5.2,9.72-8.45,12.4-13.64,22.12" transform="translate(0 9.37)"/><path class="cls-4" d="M709.08,339.62a7.22,7.22,0,0,1-4.12,3.64,53,53,0,0,1-5.32,1.83,91.82,91.82,0,0,1-11,2.42c-7.41,1.19-14.9,1.85-22.21,3.49a75.79,75.79,0,0,0-20.85,8,97.75,97.75,0,0,0-18.07,13.19c-11.12,10.05-20.19,22.12-28.57,34.53-4.18,6.22-8.24,12.53-12.29,18.84L574.49,444.5l11.85-19.13c4-6.34,8-12.67,12.18-18.92,8.33-12.46,17.35-24.63,28.49-34.8a98.83,98.83,0,0,1,18.27-13.19,77,77,0,0,1,21.05-7.95c7.35-1.6,14.85-2.22,22.25-3.36a93.33,93.33,0,0,0,11-2.23,55.51,55.51,0,0,0,5.34-1.75A7.19,7.19,0,0,0,709.08,339.62Z" transform="translate(0 9.37)"/><path class="cls-4" d="M656.86,353.5a20.11,20.11,0,0,1,5.95-.46,27.39,27.39,0,0,1,5.9,1.08,50.11,50.11,0,0,1,5.62,2c1.83.78,3.63,1.6,5.42,2.46-1.9-.57-3.76-1.26-5.63-1.92s-3.72-1.31-5.61-1.84a36.81,36.81,0,0,0-5.75-1.23A29.06,29.06,0,0,0,656.86,353.5Z" transform="translate(0 9.37)"/><path class="cls-4" d="M680.18,348.47a23,23,0,0,1,3.89-.07,24,24,0,0,1,3.86.56,23,23,0,0,1,3.72,1.2,21.24,21.24,0,0,1,3.43,1.82c-1.22-.44-2.42-.89-3.63-1.28s-2.45-.73-3.69-1-2.49-.51-3.75-.72S681.47,348.64,680.18,348.47Z" transform="translate(0 9.37)"/><path class="cls-4" d="M664.63,351.13a40.74,40.74,0,0,1,3.82-3.23,46.42,46.42,0,0,1,4.16-2.79,43.61,43.61,0,0,1,4.44-2.33,31.07,31.07,0,0,1,4.7-1.72c-1.51.72-3,1.45-4.45,2.24s-2.89,1.6-4.31,2.45-2.81,1.73-4.21,2.62S666,350.21,664.63,351.13Z" transform="translate(0 9.37)"/><path class="cls-4" d="M689.65,347.31a14.22,14.22,0,0,1,3.8-3.19,15.5,15.5,0,0,1,2.24-1.1,4.4,4.4,0,0,1,2.45-.45,6.78,6.78,0,0,0-2.2,1c-.71.4-1.42.8-2.11,1.21C692.43,345.58,691.08,346.47,689.65,347.31Z" transform="translate(0 9.37)"/><path class="cls-4" d="M636.64,364.31a31.28,31.28,0,0,1,6.75-1.73,35.52,35.52,0,0,1,7-.28,37.59,37.59,0,0,1,6.91,1.13,35.85,35.85,0,0,1,6.53,2.44,60.73,60.73,0,0,0-6.67-1.88,42.42,42.42,0,0,0-6.81-.94,39.53,39.53,0,0,0-6.88.1A48.35,48.35,0,0,0,636.64,364.31Z" transform="translate(0 9.37)"/><path class="cls-4" d="M643.57,359.68a33.08,33.08,0,0,1,3-6.25,40.42,40.42,0,0,1,4.13-5.6,38.71,38.71,0,0,1,5.13-4.7,30.81,30.81,0,0,1,5.94-3.55,50.61,50.61,0,0,0-5.59,4,45.08,45.08,0,0,0-4.92,4.75,45.67,45.67,0,0,0-4.2,5.4A55.8,55.8,0,0,0,643.57,359.68Z" transform="translate(0 9.37)"/><path class="cls-4" d="M619.87,379.21a34,34,0,0,1,5.4-1.74,36.86,36.86,0,0,1,5.63-.89,38.6,38.6,0,0,1,5.69,0,36.75,36.75,0,0,1,5.62.8c-1.89-.11-3.77-.21-5.64-.22s-3.75.05-5.61.21-3.72.39-5.57.7S621.71,378.77,619.87,379.21Z" transform="translate(0 9.37)"/><path class="cls-4" d="M634.9,348.81a27.59,27.59,0,0,0-3.91,5.76,44.6,44.6,0,0,0-2.68,6.42c-.8,2.19-1.45,4.43-2.13,6.66s-.86,4.59-1.64,6.81c.48-2.29.51-4.64,1.08-7s1.23-4.52,2-6.76a39.22,39.22,0,0,1,2.89-6.45A21.1,21.1,0,0,1,634.9,348.81Z" transform="translate(0 9.37)"/><path class="cls-4" d="M615.39,364.7a65.92,65.92,0,0,0-4.07,7.47,60.66,60.66,0,0,0-3,7.92,59.62,59.62,0,0,0-2,8.25,70.33,70.33,0,0,0-.9,8.46,45.33,45.33,0,0,1,.33-8.55,50.22,50.22,0,0,1,5-16.33A44.53,44.53,0,0,1,615.39,364.7Z" transform="translate(0 9.37)"/><path class="cls-4" d="M607.94,393.28a18.48,18.48,0,0,1,3.55-1.58,21.7,21.7,0,0,1,3.8-.92,22.09,22.09,0,0,1,3.9-.24,18.52,18.52,0,0,1,3.86.47c-1.3,0-2.58,0-3.85.1s-2.54.21-3.8.41-2.5.44-3.75.73S609.18,392.91,607.94,393.28Z" transform="translate(0 9.37)"/><path class="cls-3" d="M178.91,414.72c-3.55-6.81-7.22-13.78-12.81-18.82a55.11,55.11,0,0,0-10.79-7.13c-4.71-2.56-9.91-5.44-15.21-6a63.54,63.54,0,0,0-18.21.79c-12.33,2.3-21.26,10.74-26.22,22.81-4,9.6-5.68,18.92-8.86,28.83a140.14,140.14,0,0,0,16.57-5.09,43.79,43.79,0,0,0,11.23-5.73,54.59,54.59,0,0,0,8.84-9.24l12.85-15.72a27.72,27.72,0,0,1,4.88-5,17,17,0,0,1,10-2.9,15.39,15.39,0,0,1,8.86,2.45c3.53,2.46,8,5.41,10.06,9.3,2.49,4.62,6.64,7.42,8.82,14.47" transform="translate(0 9.37)"/><path class="cls-4" d="M86.81,435.15A56.31,56.31,0,0,0,96,423c2.62-4.35,5.09-8.8,8-13a53.83,53.83,0,0,1,10.12-11.45,47.15,47.15,0,0,1,13.12-7.85,45.87,45.87,0,0,1,15-3.13,43.62,43.62,0,0,1,7.66.39,23.29,23.29,0,0,1,7.36,2.22,23.65,23.65,0,0,1,6,4.81c1.8,1.79,3.6,3.59,5.32,5.47A48.32,48.32,0,0,1,177.13,413a48.13,48.13,0,0,0-8.92-12.26c-1.74-1.84-3.56-3.62-5.38-5.39a19.88,19.88,0,0,0-13.1-6.72,42.36,42.36,0,0,0-7.55-.35,45.34,45.34,0,0,0-14.72,3.14,46.64,46.64,0,0,0-13,7.68,55.41,55.41,0,0,0-10.09,11.25c-2.93,4.15-5.44,8.56-8.14,12.88A55.92,55.92,0,0,1,86.81,435.15Z" transform="translate(0 9.37)"/><path class="cls-4" d="M91.3,419.92a19.1,19.1,0,0,1,4.87-4.08,18.86,18.86,0,0,1,5.89-2.34c-1.88,1-3.73,1.91-5.51,3S93.06,418.72,91.3,419.92Z" transform="translate(0 9.37)"/><path class="cls-4" d="M99.34,399.32a26.71,26.71,0,0,1,3.92-1.06,33,33,0,0,1,8.1-.62,28.88,28.88,0,0,1,4,.46c-1.36,0-2.7.06-4,.12s-2.68.12-4,.23-2.66.24-4,.37S100.69,399.16,99.34,399.32Z" transform="translate(0 9.37)"/><path class="cls-4" d="M115.15,385.12a22.61,22.61,0,0,1,7.38,1,12.18,12.18,0,0,1,6.14,4.15,18.63,18.63,0,0,0-6.37-3.44A71.56,71.56,0,0,0,115.15,385.12Z" transform="translate(0 9.37)"/><path class="cls-4" d="M138.68,382.77a8.49,8.49,0,0,1,3.56,1.75,8.66,8.66,0,0,1,2.48,3.09c-1-.86-1.95-1.71-2.95-2.51S139.75,383.57,138.68,382.77Z" transform="translate(0 9.37)"/><path class="cls-4" d="M137.77,397a26.63,26.63,0,0,1,.7-2.62,23,23,0,0,1,.93-2.56,10.7,10.7,0,0,1,1.42-2.38,5,5,0,0,1,2.21-1.63,7.59,7.59,0,0,0-1.74,2,19.14,19.14,0,0,0-1.21,2.34c-.38.8-.68,1.65-1.07,2.46A26.13,26.13,0,0,1,137.77,397Z" transform="translate(0 9.37)"/><path class="cls-4" d="M127.36,391a28.63,28.63,0,0,0-1.38,5.58,57.29,57.29,0,0,0-.48,5.72c-.09,1.92-.11,3.85-.21,5.78a41.63,41.63,0,0,1-.59,5.78c0-1.94,0-3.86,0-5.79s0-3.86,0-5.8a35.3,35.3,0,0,1,.67-5.79A19.45,19.45,0,0,1,127.36,391Z" transform="translate(0 9.37)"/><path class="cls-4" d="M113.88,399.4a22.12,22.12,0,0,0-.74,6.92c.09,2.33,0,4.69-.07,7s-.1,4.69-.42,7a13.87,13.87,0,0,1-2.32,6.63,16.14,16.14,0,0,0,1.75-6.69c.2-2.32.18-4.67.24-7s.21-4.66.25-7A17.91,17.91,0,0,1,113.88,399.4Z" transform="translate(0 9.37)"/><path class="cls-4" d="M100.46,415.51c.09,1.4.15,2.79.2,4.18s0,2.8,0,4.21a21.84,21.84,0,0,1-.67,4.17,12.87,12.87,0,0,1-1.69,3.87,22,22,0,0,0,1.13-4,40.54,40.54,0,0,0,.48-4.1c.1-1.38.13-2.77.21-4.16A41.6,41.6,0,0,1,100.46,415.51Z" transform="translate(0 9.37)"/><path class="cls-5" d="M178.14,415.46c-3.3-19.14-10.06-30.38-22.62-42.66C150,367.36,142.83,359,136.19,355a70.84,70.84,0,0,0-10.41-5.57,46.43,46.43,0,0,0-10.52-2.68c-21.66-3.18-43.87,4.37-62,16.82a122.64,122.64,0,0,0,48.54,14.63,73.23,73.23,0,0,0,13.16.06c3.82-.37,7.58-1.15,11.4-1.56,9.77-1,21.6-2,30.29,2.68s11.55,10.85,14.69,20.26c2,6.07,5.07,17.05,9.1,22" transform="translate(0 9.37)"/><path class="cls-4" d="M53.3,363.55a61.72,61.72,0,0,0,15.66.26c5.22-.43,10.4-1.2,15.61-1.85a124,124,0,0,1,31.45-.18,127.19,127.19,0,0,1,15.48,2.93,86.88,86.88,0,0,1,14.88,5.2,63.45,63.45,0,0,1,13.42,8.23,49.13,49.13,0,0,1,10.38,11.76,48.85,48.85,0,0,0-10.61-11.47,63.32,63.32,0,0,0-13.43-8,107.27,107.27,0,0,0-30.21-7.91,126.49,126.49,0,0,0-31.29,0c-5.21.58-10.41,1.29-15.65,1.64A62,62,0,0,1,53.3,363.55Z" transform="translate(0 9.37)"/><path class="cls-4" d="M65.58,369.75a9.9,9.9,0,0,0,3.81-1.25,28.06,28.06,0,0,0,3.33-2.28,23.47,23.47,0,0,1,3.5-2.21,8.38,8.38,0,0,1,4-1.06,7.92,7.92,0,0,0-1.93.62,14.37,14.37,0,0,0-1.78.94c-1.15.71-2.25,1.49-3.33,2.31A17.69,17.69,0,0,1,69.64,369,7.64,7.64,0,0,1,65.58,369.75Z" transform="translate(0 9.37)"/><path class="cls-4" d="M79.2,374.31A16.94,16.94,0,0,0,85.84,372a34.65,34.65,0,0,0,5.6-4.31,40.07,40.07,0,0,1,5.73-4.36,17.14,17.14,0,0,1,3.29-1.5,11.1,11.1,0,0,1,3.56-.53,14.8,14.8,0,0,0-6.55,2.52,47.69,47.69,0,0,0-5.53,4.43,31.71,31.71,0,0,1-5.82,4.25,16.86,16.86,0,0,1-3.36,1.35A13.44,13.44,0,0,1,79.2,374.31Z" transform="translate(0 9.37)"/><path class="cls-4" d="M97,377.43a24.41,24.41,0,0,0,6.88-3.45c2.13-1.45,4.17-3,6.24-4.61a41.94,41.94,0,0,1,6.65-4.12c.6-.25,1.2-.52,1.81-.75s1.25-.41,1.88-.57,1.29-.25,1.93-.35,1.3-.08,1.95-.11a20.54,20.54,0,0,0-7.32,2.3,45.75,45.75,0,0,0-6.45,4.21c-2.1,1.5-4.15,3.11-6.37,4.48A20.28,20.28,0,0,1,97,377.43Z" transform="translate(0 9.37)"/><path class="cls-4" d="M124.35,377a23.57,23.57,0,0,1,4-3.29,28.94,28.94,0,0,1,4.6-2.44,33.38,33.38,0,0,1,4.95-1.64,31.71,31.71,0,0,1,5.11-.86c-1.67.45-3.33.89-5,1.41s-3.24,1.1-4.8,1.78a43.4,43.4,0,0,0-4.6,2.24A46.14,46.14,0,0,0,124.35,377Z" transform="translate(0 9.37)"/><path class="cls-4" d="M62.33,358a14.47,14.47,0,0,1,3.54.34c.59.1,1.16.23,1.74.35a7.83,7.83,0,0,1,1.76.52,28.88,28.88,0,0,1,3.15,1.69A21.21,21.21,0,0,1,75.4,363c-2.12-1.07-4.2-2.14-6.33-3.11a8.07,8.07,0,0,0-1.62-.51l-1.71-.47-1.7-.49A11.53,11.53,0,0,0,62.33,358Z" transform="translate(0 9.37)"/><path class="cls-4" d="M76.54,351.44a14.75,14.75,0,0,1,5.55.58,21.76,21.76,0,0,1,5.13,2.26,32.77,32.77,0,0,1,4.52,3.31,52.21,52.21,0,0,1,4,3.85c-1.48-1.12-2.91-2.3-4.38-3.4a50.67,50.67,0,0,0-4.54-3.11,28,28,0,0,0-4.93-2.37A19.91,19.91,0,0,0,76.54,351.44Z" transform="translate(0 9.37)"/><path class="cls-4" d="M96.68,346.54a21,21,0,0,1,5.62,2.19,25.23,25.23,0,0,1,4.86,3.61,33.69,33.69,0,0,1,4,4.53,45.8,45.8,0,0,1,3.27,5.05c-1.23-1.58-2.44-3.17-3.72-4.69a50.58,50.58,0,0,0-4.06-4.34,31.61,31.61,0,0,0-4.65-3.66A30.51,30.51,0,0,0,96.68,346.54Z" transform="translate(0 9.37)"/><path class="cls-4" d="M120.31,347.91a23,23,0,0,1,4.51,3.29,27,27,0,0,1,3.7,4.22,28,28,0,0,1,2.75,4.89,24.43,24.43,0,0,1,1.67,5.33,45.09,45.09,0,0,0-2.19-5.09,39.91,39.91,0,0,0-2.84-4.7,38.15,38.15,0,0,0-3.49-4.24A39.12,39.12,0,0,0,120.31,347.91Z" transform="translate(0 9.37)"/><path class="cls-4" d="M142.69,359.51a11.68,11.68,0,0,1,3.54,4.75,12,12,0,0,1,.92,5.85,27.81,27.81,0,0,0-1.61-5.56A25,25,0,0,0,142.69,359.51Z" transform="translate(0 9.37)"/><path class="cls-3" d="M168.07,402a64.33,64.33,0,0,0-1.46-23.32c-1.71-6.77-4.52-13.06-6.78-19.58-3.78-10.88-7.25-21.5-13.71-30.63A83,83,0,0,0,129.55,311a97.66,97.66,0,0,0-20.2-11.78c-8.5-3.78-17-7-20.54-14.56,1.9,9.47,3.66,12.5,6.31,18.92,5.54,13.37,15.51,22.9,26,30.81s27.2,17,32.22,22.79c2.39,2.74,9.17,8.09,12.25,24.61,1.62,8.65,2.27,12.69,1.33,26.35" transform="translate(0 9.37)"/><path class="cls-4" d="M89.59,287.06a61.8,61.8,0,0,0,7.69,12.74,89.24,89.24,0,0,0,10.07,10.95c7.28,6.78,15.38,12.59,23.3,18.63s15.64,12.49,21.92,20.31a59,59,0,0,1,7.76,12.78,96.17,96.17,0,0,1,4.79,14.15,97.66,97.66,0,0,0-5.12-14,59.14,59.14,0,0,0-7.88-12.57c-6.32-7.67-14-14.05-21.93-20.07s-16-11.9-23.23-18.81A88.63,88.63,0,0,1,97,300,62.12,62.12,0,0,1,89.59,287.06Z" transform="translate(0 9.37)"/><path class="cls-4" d="M95.39,304.23a5.87,5.87,0,0,0,2,1.21c.71.27,1.47.53,2.21.79,1.47.54,3,1,4.43,1.7a16.64,16.64,0,0,1-4.69-1,14.83,14.83,0,0,1-2.21-1A3.92,3.92,0,0,1,95.39,304.23Z" transform="translate(0 9.37)"/><path class="cls-4" d="M104.73,319.27a14.94,14.94,0,0,0,7.07,1.28c1.21,0,2.45-.05,3.69,0a12.26,12.26,0,0,1,3.65.67,62,62,0,0,0-7.34.06,16.25,16.25,0,0,1-3.73-.39A7.93,7.93,0,0,1,104.73,319.27Z" transform="translate(0 9.37)"/><path class="cls-4" d="M121.23,334.84c2.35-.16,4.67-.23,7-.4s4.62-.38,7-.53a28.72,28.72,0,0,1-6.93,1.28A29.12,29.12,0,0,1,121.23,334.84Z" transform="translate(0 9.37)"/><path class="cls-4" d="M136.21,344.67c1.69-.29,3.34-.48,5-.76s3.28-.57,5-.81a15.35,15.35,0,0,1-4.86,1.55A15.59,15.59,0,0,1,136.21,344.67Z" transform="translate(0 9.37)"/><path class="cls-4" d="M100,295a14.18,14.18,0,0,1,1.51,5.45c.07.95.06,1.88.11,2.79a7.88,7.88,0,0,0,.55,2.69A5.2,5.2,0,0,1,101,303.3c-.17-.94-.2-1.89-.28-2.8A53.18,53.18,0,0,0,100,295Z" transform="translate(0 9.37)"/><path class="cls-4" d="M111.21,300.65a14,14,0,0,1,2.1,4.06,26.5,26.5,0,0,1,1,4.46c.23,1.51.4,3,.56,4.52a39.93,39.93,0,0,0,.64,4.48,19.28,19.28,0,0,1-1.21-4.4c-.29-1.49-.49-3-.73-4.48s-.5-3-.86-4.41A22.62,22.62,0,0,0,111.21,300.65Z" transform="translate(0 9.37)"/><path class="cls-4" d="M122.55,306.36a18.41,18.41,0,0,1,3.49,5.33,39.61,39.61,0,0,1,2,6.06c.49,2.07.92,4.14,1.34,6.21s.88,4.13,1.46,6.17a38.93,38.93,0,0,1-2-6c-.54-2-1-4.12-1.51-6.16a46.48,46.48,0,0,0-1.84-6A24.5,24.5,0,0,0,122.55,306.36Z" transform="translate(0 9.37)"/><path class="cls-4" d="M137.37,317.8a40,40,0,0,1,2,5.7c.54,1.94,1,3.9,1.41,5.85s.85,3.91,1.31,5.85a32.46,32.46,0,0,0,1.84,5.68,21.58,21.58,0,0,1-2.39-5.53c-.6-1.92-1.05-3.88-1.49-5.84l-1.24-5.87C138.35,321.68,137.9,319.74,137.37,317.8Z" transform="translate(0 9.37)"/><path class="cls-4" d="M150.94,337c.22,1.22.38,2.45.5,3.68l.35,3.65a30.06,30.06,0,0,0,.86,3.52c.34,1.18.68,2.37,1,3.57a34.25,34.25,0,0,1-1.53-3.38,18.07,18.07,0,0,1-1-3.61c-.09-1.24-.21-2.49-.2-3.72S150.87,338.25,150.94,337Z" transform="translate(0 9.37)"/><path class="cls-6" d="M570.67,357.94h62.51c13.08,0,23.68,11.24,23.68,25.1h0c0,13.86-10.6,25.1-23.68,25.1H489.11" transform="translate(0 9.37)"/><path class="cls-6" d="M187.75,263.67H78.06c-13.67,0-24.76,11.75-24.76,26.25h0c0,14.5,11.09,26.25,24.76,26.25H201.51c10.33,0,18.7,8.87,18.7,19.82h0c0,10.95-8.37,19.82-18.7,19.82H107.69c-9,0-16.24,7.71-16.24,17.21h0c0,9.51,7.27,17.21,16.24,17.21h160" transform="translate(0 9.37)"/><path class="cls-6" d="M280.27,166.4h0c0-9.91,7.58-17.94,16.93-17.94h306c15.77,0,28.55,13.55,28.55,30.27h0c0,16.72-12.78,30.27-28.55,30.27H555.79c-7.78,0-14.09,6.69-14.09,14.94h0c0,8.25,6.31,14.94,14.09,14.94H676.46c10.29,0,18.62,8.84,18.62,19.74h0c0,10.91-8.33,19.74-18.62,19.74H338.88c-16.57,0-30-14.24-30-31.81h0c0-17.56,13.44-31.81,30-31.81h34.8c7.91,0,14.33-6.8,14.33-15.19h0c0-8.4-6.42-15.2-14.33-15.2H297.2C287.85,184.35,280.27,176.31,280.27,166.4Z" transform="translate(0 9.37)"/><path class="cls-2" d="M169.83,242.66a57.91,57.91,0,0,0,0-25.58l-10.92,1.7a45,45,0,0,0-4.18-10.67l8.87-7A53.76,53.76,0,0,0,146.54,183l-6.61,9.4A39.4,39.4,0,0,0,129.87,188l1.6-11.58a48.92,48.92,0,0,0-24.12,0L109,188a39.4,39.4,0,0,0-10.06,4.43L92.28,183a53.76,53.76,0,0,0-17.06,18.08l8.87,7a45,45,0,0,0-4.18,10.67L69,217.08a57.91,57.91,0,0,0,0,25.58L79.91,241a45,45,0,0,0,4.18,10.67l-8.87,7a53.76,53.76,0,0,0,17.06,18.08l6.61-9.4A39.05,39.05,0,0,0,109,271.74l-1.6,11.58a48.6,48.6,0,0,0,24.12,0l-1.6-11.58a39.05,39.05,0,0,0,10.06-4.43l6.61,9.4a53.76,53.76,0,0,0,17.06-18.08l-8.87-7A45,45,0,0,0,158.91,241Zm-50.42,13.7c-13.8,0-25-11.86-25-26.49s11.18-26.49,25-26.49,25,11.86,25,26.49S133.21,256.36,119.41,256.36Z" transform="translate(0 9.37)"/><path class="cls-2" d="M178,145.49a32.72,32.72,0,0,0-1.2-7.05,31.11,31.11,0,0,0-2.72-6.56l-5.55,2.78a24.24,24.24,0,0,0-3.86-5l3.65-5.25a28.5,28.5,0,0,0-11.85-6.69l-2.08,6.14a21.33,21.33,0,0,0-6-.63l-.92-6.44a28,28,0,0,0-6.66,1.27,28.43,28.43,0,0,0-6.19,2.88l2.63,5.89a23.15,23.15,0,0,0-4.68,4.09l-5-3.87a31.48,31.48,0,0,0-6.32,12.56l5.8,2.21a25.16,25.16,0,0,0-.59,6.39l-6.08,1a32.12,32.12,0,0,0,1.2,7.05,31.62,31.62,0,0,0,2.71,6.56l5.56-2.78a23.89,23.89,0,0,0,3.86,5l-3.65,5.25A28.44,28.44,0,0,0,141.92,177l2.08-6.14a21.33,21.33,0,0,0,6,.63l.92,6.44a27.62,27.62,0,0,0,12.84-4.15l-2.62-5.89a23.15,23.15,0,0,0,4.68-4.09l5,3.87a31.27,31.27,0,0,0,6.31-12.56l-5.79-2.21a25.16,25.16,0,0,0,.59-6.39Zm-24.75,16c-7.34,2.37-15.11-2-17.35-9.8s1.9-16,9.24-18.4,15.12,2,17.36,9.8S160.59,159.09,153.24,161.46Z" transform="translate(0 9.37)"/><path class="cls-2" d="M652.74,176.8a32.71,32.71,0,0,0-.36-7.16,32.11,32.11,0,0,0-1.91-6.87l-5.85,2a24,24,0,0,0-3.24-5.43l4.25-4.72a29.11,29.11,0,0,0-11-8.22l-2.79,5.81a21.54,21.54,0,0,0-5.91-1.42l-.15-6.51a27.15,27.15,0,0,0-13.23,2.41l1.9,6.19a23,23,0,0,0-5.12,3.43l-4.46-4.49a30.81,30.81,0,0,0-7.75,11.62l5.49,2.95a25.29,25.29,0,0,0-1.34,6.27l-6.15.16a32,32,0,0,0,2.27,14l5.85-2a24.36,24.36,0,0,0,3.23,5.43L602.26,195a29.19,29.19,0,0,0,11,8.21l2.78-5.81a21.63,21.63,0,0,0,5.91,1.42l.16,6.51a27.53,27.53,0,0,0,6.75-.37,28.1,28.1,0,0,0,6.48-2l-1.91-6.2a22.54,22.54,0,0,0,5.13-3.43l4.46,4.5a30.93,30.93,0,0,0,7.75-11.63l-5.49-3a25.29,25.29,0,0,0,1.34-6.27ZM626.3,189.35c-7.57,1.38-14.76-4-16.06-12s3.78-15.64,11.35-17,14.76,4,16.06,12S633.87,188,626.3,189.35Z" transform="translate(0 9.37)"/><path class="cls-2" d="M232.8,150.1a18.87,18.87,0,0,0-2-3.74,18,18,0,0,0-2.79-3.14L225.35,146a13.15,13.15,0,0,0-3.13-2l1.07-3.76a16.54,16.54,0,0,0-8-1.26v3.93a12.71,12.71,0,0,0-3.54.94L210,140.39a17.06,17.06,0,0,0-3.53,2.14,17.76,17.76,0,0,0-3,3l2.62,2.78a14.71,14.71,0,0,0-1.88,3.32l-3.55-1.13a19.54,19.54,0,0,0-1.18,8.48h3.7a15.29,15.29,0,0,0,.89,3.75l-3.26,1.86a18.66,18.66,0,0,0,2,3.75,18,18,0,0,0,2.8,3.14l2.62-2.77a13.68,13.68,0,0,0,3.13,2l-1.07,3.76a16.58,16.58,0,0,0,8,1.26v-3.93a12.8,12.8,0,0,0,3.54-.94l1.75,3.46a17,17,0,0,0,3.53-2.15,18.08,18.08,0,0,0,3-3l-2.61-2.78a15.12,15.12,0,0,0,1.87-3.32l3.55,1.13a19.57,19.57,0,0,0,1.19-8.48h-3.71a15.34,15.34,0,0,0-.88-3.76Zm-11,14.37a8.07,8.07,0,0,1-11.72-1.84,9.24,9.24,0,0,1,1.74-12.43,8.08,8.08,0,0,1,11.72,1.85A9.24,9.24,0,0,1,221.8,164.47Z" transform="translate(0 9.37)"/><path class="cls-2" d="M610.88,214.42a22.47,22.47,0,0,0-2.45-4.54,22.16,22.16,0,0,0-3.39-3.8l-3.18,3.35a16.36,16.36,0,0,0-3.79-2.4l1.29-4.57a20.18,20.18,0,0,0-9.7-1.52v4.76a15.67,15.67,0,0,0-4.29,1.14l-2.12-4.19a20.24,20.24,0,0,0-4.28,2.6,21.84,21.84,0,0,0-3.6,3.59l3.17,3.37a17.6,17.6,0,0,0-2.27,4l-4.3-1.38a23.51,23.51,0,0,0-1.44,10.28H575a18.37,18.37,0,0,0,1.07,4.55l-4,2.26a23.5,23.5,0,0,0,2.45,4.54,22.16,22.16,0,0,0,3.39,3.8l3.18-3.35a16.21,16.21,0,0,0,3.8,2.4l-1.3,4.57a20.18,20.18,0,0,0,9.7,1.52v-4.76a16,16,0,0,0,4.29-1.14l2.13,4.19a20.75,20.75,0,0,0,4.28-2.6,22.16,22.16,0,0,0,3.59-3.59l-3.17-3.37a17.64,17.64,0,0,0,2.28-4l4.3,1.38a23.8,23.8,0,0,0,1.44-10.28H608a18.11,18.11,0,0,0-1.07-4.56Zm-13.33,17.41a9.77,9.77,0,0,1-14.2-2.23,11.18,11.18,0,0,1,2.11-15,9.77,9.77,0,0,1,14.2,2.23A11.18,11.18,0,0,1,597.55,231.83Z" transform="translate(0 9.37)"/><path class="cls-2" d="M519.68,139a13.58,13.58,0,0,0-3.57-5.11l-2,2.06a10,10,0,0,0-2.32-1.48l.79-2.78a12.33,12.33,0,0,0-5.93-.94v2.92a9.47,9.47,0,0,0-2.63.69l-1.3-2.56a12.74,12.74,0,0,0-2.62,1.59,13,13,0,0,0-2.19,2.19l1.93,2.06a10.7,10.7,0,0,0-1.38,2.47l-2.64-.84a14.58,14.58,0,0,0-.88,6.28h2.75a11.26,11.26,0,0,0,.66,2.78L496,149.7a14,14,0,0,0,1.5,2.77,13.31,13.31,0,0,0,2.07,2.33l1.95-2.05a9.47,9.47,0,0,0,2.32,1.47L503,157a12.18,12.18,0,0,0,5.93.93V155a9.56,9.56,0,0,0,2.63-.69l1.3,2.56a12.94,12.94,0,0,0,2.61-1.59,13.08,13.08,0,0,0,2.2-2.2l-1.94-2.06a10.51,10.51,0,0,0,1.39-2.46l2.63.84a14.31,14.31,0,0,0,.88-6.29h-2.74a11.33,11.33,0,0,0-.66-2.79Zm-8.15,10.64a6,6,0,0,1-8.69-1.36,6.86,6.86,0,0,1,1.29-9.21,6,6,0,0,1,8.68,1.37A6.83,6.83,0,0,1,511.53,149.62Z" transform="translate(0 9.37)"/></svg>