<svg xmlns="http://www.w3.org/2000/svg" xmlns:xlink="http://www.w3.org/1999/xlink" viewBox="0 0 333.71 215.17"><defs><style>.cls-1,.cls-4{fill:#fff;}.cls-2{fill:url(#linear-gradient);}.cls-3{fill:none;stroke-miterlimit:10;stroke:url(#linear-gradient-2);}.cls-4{font-size:18px;font-family:Poppins-SemiBold, Poppins;font-weight:600;letter-spacing:0.05em;}</style><linearGradient id="linear-gradient" y1="13.91" x2="333.71" y2="13.91" gradientUnits="userSpaceOnUse"><stop offset="0" stop-color="#ff008c"/><stop offset="0.46" stop-color="#ff2c75"/><stop offset="1" stop-color="#ff6357"/></linearGradient><linearGradient id="linear-gradient-2" x1="322.91" y1="13.59" x2="264.49" y2="13.59" gradientUnits="userSpaceOnUse"><stop offset="0" stop-color="#fff" stop-opacity="0.6"/><stop offset="0.37" stop-color="#fff" stop-opacity="0.59"/><stop offset="0.54" stop-color="#fff" stop-opacity="0.56"/><stop offset="0.68" stop-color="#fff" stop-opacity="0.51"/><stop offset="0.79" stop-color="#fff" stop-opacity="0.44"/><stop offset="0.89" stop-color="#fff" stop-opacity="0.34"/><stop offset="0.98" stop-color="#fff" stop-opacity="0.23"/><stop offset="1" stop-color="#fff" stop-opacity="0.2"/></linearGradient></defs><title>Asset 2</title><g id="Layer_2" data-name="Layer 2"><g id="OBJECTS"><path class="cls-1" d="M9.54,0H324.17a9.54,9.54,0,0,1,9.54,9.54V215.17a0,0,0,0,1,0,0H0a0,0,0,0,1,0,0V9.54A9.54,9.54,0,0,1,9.54,0Z"/><path class="cls-2" d="M324.17,0H9.54A9.54,9.54,0,0,0,0,9.54V27.82H333.71V9.54A9.54,9.54,0,0,0,324.17,0Z"/><path class="cls-1" d="M22.45,13.91A3.44,3.44,0,1,1,19,10.48,3.43,3.43,0,0,1,22.45,13.91Z"/><path class="cls-1" d="M38.47,13.91A3.44,3.44,0,1,1,35,10.48,3.43,3.43,0,0,1,38.47,13.91Z"/><path class="cls-1" d="M54.49,13.91a3.44,3.44,0,1,1-3.44-3.43A3.43,3.43,0,0,1,54.49,13.91Z"/><path class="cls-3" d="M316,20H271.42A6.43,6.43,0,0,1,265,13.59h0a6.43,6.43,0,0,1,6.43-6.43H316a6.43,6.43,0,0,1,6.43,6.43h0A6.43,6.43,0,0,1,316,20Z"/><text class="cls-4" transform="translate(116.95 20.03)">Short It</text></g></g></svg>